<?xml version="1.0" standalone="no"?>
<svg xmlns:xlink="http://www.w3.org/1999/xlink" id="wave" style="transform:rotate(0deg); transition: 0.3s" viewBox="0 0 1440 100" version="1.1" xmlns="http://www.w3.org/2000/svg"><defs><linearGradient id="sw-gradient-0" x1="0" x2="0" y1="1" y2="0"><stop stop-color="rgba(255, 249, 234, 1)" offset="0%"/><stop stop-color="rgba(255, 249, 234, 1)" offset="100%"/></linearGradient></defs><path style="transform:translate(0, 0px); opacity:1" fill="url(#sw-gradient-0)" d="M0,30L40,28.3C80,27,160,23,240,20C320,17,400,13,480,10C560,7,640,3,720,16.7C800,30,880,60,960,60C1040,60,1120,30,1200,28.3C1280,27,1360,53,1440,60C1520,67,1600,53,1680,43.3C1760,33,1840,27,1920,33.3C2000,40,2080,60,2160,71.7C2240,83,2320,87,2400,80C2480,73,2560,57,2640,51.7C2720,47,2800,53,2880,56.7C2960,60,3040,60,3120,51.7C3200,43,3280,27,3360,31.7C3440,37,3520,63,3600,65C3680,67,3760,43,3840,35C3920,27,4000,33,4080,33.3C4160,33,4240,27,4320,26.7C4400,27,4480,33,4560,43.3C4640,53,4720,67,4800,60C4880,53,4960,27,5040,23.3C5120,20,5200,40,5280,53.3C5360,67,5440,73,5520,78.3C5600,83,5680,87,5720,88.3L5760,90L5760,100L5720,100C5680,100,5600,100,5520,100C5440,100,5360,100,5280,100C5200,100,5120,100,5040,100C4960,100,4880,100,4800,100C4720,100,4640,100,4560,100C4480,100,4400,100,4320,100C4240,100,4160,100,4080,100C4000,100,3920,100,3840,100C3760,100,3680,100,3600,100C3520,100,3440,100,3360,100C3280,100,3200,100,3120,100C3040,100,2960,100,2880,100C2800,100,2720,100,2640,100C2560,100,2480,100,2400,100C2320,100,2240,100,2160,100C2080,100,2000,100,1920,100C1840,100,1760,100,1680,100C1600,100,1520,100,1440,100C1360,100,1280,100,1200,100C1120,100,1040,100,960,100C880,100,800,100,720,100C640,100,560,100,480,100C400,100,320,100,240,100C160,100,80,100,40,100L0,100Z"/></svg>